Coordinates
version=1
nRows=8
nColumns=36
inDegrees=yes

Units are S.I. units (second, meters, Newtons, ...)
If the header above contains a line with 'inDegrees', this indicates whether rotational values are in degrees (yes) or radians (no).

endheader
time	pelvis_tilt	pelvis_list	pelvis_rotation	pelvis_tx	pelvis_ty	pelvis_tz	hip_flexion_r	hip_adduction_r	hip_rotation_r	knee_angle_r	knee_angle_r_beta	ankle_angle_r	subtalar_angle_r	mtp_angle_r	hip_flexion_l	hip_adduction_l	hip_rotation_l	knee_angle_l	knee_angle_l_beta	ankle_angle_l	subtalar_angle_l	mtp_angle_l	lumbar_extension	lumbar_bending	lumbar_rotation	arm_flex_r	arm_add_r	arm_rot_r	elbow_flex_r	pro_sup_r	arm_flex_l	arm_add_l	arm_rot_l	elbow_flex_l	pro_sup_l
      2.99583330	     -2.76586201	      0.34710229	     -1.15657401	      0.18829079	      0.92429638	     -0.08613811	      0.57828122	     -4.62132231	     -5.05592478	      0.87920508	      0.01534502	     12.05631223	     -8.08741961	     -7.49999987	      1.31058853	     -2.54668954	     -3.15310742	      0.29129820	      0.00508411	     12.36038460	      6.07879217	     -7.49999987	     -1.35546020	      1.03019309	      7.42253517	    288.60221344	    -38.09623585	    207.94928366	     34.94983999	     91.71488847	    519.57399912	   -116.85159552	    428.55799018	     43.17538418	     96.95570945
      3.00000000	     -2.88497827	      0.38337952	     -1.05887244	      0.18836983	      0.92445169	     -0.08595837	      0.67591559	     -4.62589477	     -5.17857592	      0.87069216	      0.01519644	     12.01156828	     -8.00650021	     -7.49999987	      1.41939064	     -2.52191634	     -3.15412761	      0.28551622	      0.00498320	     12.23104912	      5.93447754	     -7.49999987	     -1.22751982	      1.21104410	      8.13410270	    287.91544575	    -36.93146234	    206.85952772	     34.72309861	     94.60790123	    521.76889478	   -116.82364037	    431.05496475	     43.87589814	     99.68541456
      3.00416670	     -2.96601346	      0.42823305	     -0.97127773	      0.18825256	      0.92697187	     -0.08599304	      0.74109417	     -4.68082720	     -5.46548093	      0.85426792	      0.01490979	     12.03889268	     -7.70477527	     -7.49999987	      1.50088983	     -2.46708562	     -3.19175508	      0.27651288	      0.00482606	     12.14285936	      5.92668746	     -7.49999987	     -1.44457246	      1.20939333	      7.72771991	    288.46980719	    -36.93013058	    207.43022415	     35.09187989	     91.55179067	    518.90101534	   -117.39875904	    430.55876573	     44.11327252	     95.93404985
      3.00833330	     -2.99425621	      0.40782063	     -0.83210690	      0.18858145	      0.92410866	     -0.08597348	      0.72820874	     -4.65931416	     -5.71182227	      0.83393441	      0.01455490	     11.99875251	     -7.64994239	     -7.49999987	      1.51986541	     -2.49579225	     -3.10139886	      0.26734556	      0.00466606	     11.99690274	      5.66703526	     -7.49999987	     -1.69204290	      1.21134623	      7.20429911	    288.88832831	    -37.06308804	    207.93939621	     35.53183875	     88.96301030	    515.94069846	   -117.78135332	    429.81428982	     44.45992362	     92.78374805
      3.01250000	     -3.04178310	      0.38409443	     -0.80520079	      0.18829649	      0.92420528	     -0.08630673	      0.73798396	     -4.63166879	     -5.68096429	      0.79350117	      0.01384921	     11.84036639	     -7.90732529	     -7.49999987	      1.56778047	     -2.51228264	     -3.26901066	      0.25988481	      0.00453585	     11.91932420	      5.58281252	     -7.49999987	     -1.91863861	      1.22578379	      7.01282837	    288.89718717	    -37.06949561	    208.36429684	     35.34165310	     87.50833100	    513.54229747	   -117.99603503	    429.28931695	     44.62357598	     90.99726120
      3.01666670	     -3.26577901	      0.32742305	     -0.76333508	      0.18869022	      0.92418716	     -0.08609214	      0.96984536	     -4.59445238	     -5.76831043	      0.81654570	      0.01425141	     11.66241893	     -8.10269957	     -7.49999987	      1.78753242	     -2.56318429	     -3.46325182	      0.25783470	      0.00450006	     11.91183169	      5.55376555	     -7.49999987	     -1.80437674	      1.42116712	      7.43411341	    288.08158054	    -36.44146954	    208.14994683	     34.28584551	     91.43415039	    513.58491461	   -118.00159621	    429.58137257	     44.88515346	     94.96468074
      3.02083330	     -3.39924013	      0.30146664	     -0.61219921	      0.18849958	      0.92402237	     -0.08649414	      1.09639678	     -4.57289168	     -5.99363539	      0.79246970	      0.01383121	     11.61786224	     -8.13156461	     -7.49999987	      1.93473500	     -2.60634275	     -3.46357119	      0.25314248	      0.00441817	     11.88872716	      5.52867419	     -7.49999987	     -1.81177677	      1.46398741	      7.08838995	    288.40217896	    -36.55690788	    208.21505470	     34.77989978	     89.66134460	    511.44639854	   -118.51486319	    428.90798803	     45.50827094	     92.93294234
      3.02500000	     -3.49706244	      0.29655989	     -0.59753210	      0.18433307	      0.92401543	     -0.09042299	      1.27381926	     -4.63482481	     -5.97034230	      0.77276041	      0.01348721	     11.43448318	     -8.40761891	     -7.49999987	      2.10850774	     -2.54951752	     -3.57034899	      0.24830165	      0.00433368	     11.87653267	      5.43462531	     -7.49999987	     -2.03353216	      1.59203020	      6.94682247	    288.11984280	    -36.76352904	    208.42071378	     34.14699502	     88.14329343	    509.66416674	   -118.87164483	    428.76212316	     45.76297137	     91.13735077
